<mxfile host="app.diagrams.net" modified="2024-03-06T16:28:32.838Z" agent="Mozilla/5.0 (Windows NT 10.0; Win64; x64) AppleWebKit/537.36 (KHTML, like Gecko) Chrome/122.0.0.0 Safari/537.36" etag="FOf0BlNJDV3PHOZU91_1" version="24.0.1" type="device">
  <diagram name="Page-1" id="MxOqA3bjEGNyqx3gipge">
    <mxGraphModel dx="2524" dy="738" grid="1" gridSize="10" guides="1" tooltips="1" connect="1" arrows="1" fold="1" page="1" pageScale="1" pageWidth="850" pageHeight="1100" math="0" shadow="0">
      <root>
        <mxCell id="0" />
        <mxCell id="1" parent="0" />
        <mxCell id="si4GwPSTlt8YV-L22YSr-28" value="" style="rounded=1;whiteSpace=wrap;html=1;fillColor=#CCE5FF;" vertex="1" parent="1">
          <mxGeometry x="270" y="23.33" width="620" height="836.67" as="geometry" />
        </mxCell>
        <mxCell id="si4GwPSTlt8YV-L22YSr-10" value="Onboard&lt;div&gt;Service&amp;nbsp;&lt;/div&gt;" style="rounded=1;whiteSpace=wrap;html=1;fillColor=#66FFFF;" vertex="1" parent="1">
          <mxGeometry x="507.5" y="350" width="75" height="60" as="geometry" />
        </mxCell>
        <mxCell id="si4GwPSTlt8YV-L22YSr-11" value="Cart Service" style="rounded=1;whiteSpace=wrap;html=1;fillColor=#99FFFF;" vertex="1" parent="1">
          <mxGeometry x="375" y="100" width="75" height="60" as="geometry" />
        </mxCell>
        <mxCell id="si4GwPSTlt8YV-L22YSr-12" value="Search Service" style="rounded=1;whiteSpace=wrap;html=1;fillColor=#66FFFF;" vertex="1" parent="1">
          <mxGeometry x="507.5" y="200" width="75" height="60" as="geometry" />
        </mxCell>
        <mxCell id="si4GwPSTlt8YV-L22YSr-13" value="Reserve Service" style="rounded=1;whiteSpace=wrap;html=1;strokeColor=#66FFFF;fillColor=#66FFFF;" vertex="1" parent="1">
          <mxGeometry x="365" y="452.5" width="75" height="60" as="geometry" />
        </mxCell>
        <mxCell id="si4GwPSTlt8YV-L22YSr-14" value="Notification Service" style="rounded=1;whiteSpace=wrap;html=1;fillColor=#66FFFF;" vertex="1" parent="1">
          <mxGeometry x="590" y="740" width="75" height="60" as="geometry" />
        </mxCell>
        <mxCell id="si4GwPSTlt8YV-L22YSr-15" value="Ticket Service" style="rounded=1;whiteSpace=wrap;html=1;fillColor=#66FFFF;" vertex="1" parent="1">
          <mxGeometry x="365" y="690" width="75" height="60" as="geometry" />
        </mxCell>
        <mxCell id="si4GwPSTlt8YV-L22YSr-19" value="Istio" style="sketch=0;html=1;verticalAlign=top;labelPosition=center;verticalLabelPosition=bottom;align=center;spacingTop=-6;fontSize=11;fontStyle=1;fontColor=#999999;shape=image;aspect=fixed;imageAspect=0;image=data:image/svg+xml,PHN2ZyB4bWxucz0iaHR0cDovL3d3dy53My5vcmcvMjAwMC9zdmciIHhtbG5zOnY9Imh0dHBzOi8vdmVjdGEuaW8vbmFubyIgd2lkdGg9IjE2MCIgaGVpZ2h0PSIyNDAiIHZpZXdCb3g9IjAgMCAxNjAgMjQwIj4mI3hhOwk8c3R5bGUgdHlwZT0idGV4dC9jc3MiPiYjeGE7CS5zdDB7ZmlsbDojNDY2YmIwO30mI3hhOwk8L3N0eWxlPiYjeGE7CTxwYXRoIGNsYXNzPSJzdDAiIGQ9Ik02MCAyNDBMMCAyMTBoMTYwem0wLTE2MEwwIDIwMGw2MC0xMHpNNzAgMHYxOTBsOTAgMTB6Ii8+JiN4YTs8L3N2Zz4=;" vertex="1" parent="1">
          <mxGeometry x="200" y="386.65999999999997" width="60" height="93.34" as="geometry" />
        </mxCell>
        <mxCell id="si4GwPSTlt8YV-L22YSr-23" value="" style="edgeStyle=elbowEdgeStyle;elbow=horizontal;endArrow=classic;html=1;curved=0;rounded=0;endSize=8;startSize=8;exitX=1;exitY=0.5;exitDx=0;exitDy=0;" edge="1" parent="1">
          <mxGeometry width="50" height="50" relative="1" as="geometry">
            <mxPoint x="250" y="433.3299999999999" as="sourcePoint" />
            <mxPoint x="370" y="120" as="targetPoint" />
          </mxGeometry>
        </mxCell>
        <mxCell id="si4GwPSTlt8YV-L22YSr-24" value="" style="edgeStyle=elbowEdgeStyle;elbow=horizontal;endArrow=classic;html=1;curved=0;rounded=0;endSize=8;startSize=8;exitX=1;exitY=0.5;exitDx=0;exitDy=0;" edge="1" parent="1" source="si4GwPSTlt8YV-L22YSr-19">
          <mxGeometry width="50" height="50" relative="1" as="geometry">
            <mxPoint x="310" y="770" as="sourcePoint" />
            <mxPoint x="360" y="720" as="targetPoint" />
          </mxGeometry>
        </mxCell>
        <mxCell id="si4GwPSTlt8YV-L22YSr-25" value="&lt;div&gt;&lt;br&gt;&lt;/div&gt;" style="rounded=1;whiteSpace=wrap;html=1;fillColor=#CCCCFF;" vertex="1" parent="1">
          <mxGeometry x="1150" y="145" width="520" height="510" as="geometry" />
        </mxCell>
        <mxCell id="si4GwPSTlt8YV-L22YSr-26" value="" style="sketch=0;points=[[0,0,0],[0.25,0,0],[0.5,0,0],[0.75,0,0],[1,0,0],[0,1,0],[0.25,1,0],[0.5,1,0],[0.75,1,0],[1,1,0],[0,0.25,0],[0,0.5,0],[0,0.75,0],[1,0.25,0],[1,0.5,0],[1,0.75,0]];outlineConnect=0;fontColor=#232F3E;fillColor=#8C4FFF;strokeColor=#ffffff;dashed=0;verticalLabelPosition=bottom;verticalAlign=top;align=center;html=1;fontSize=12;fontStyle=0;aspect=fixed;shape=mxgraph.aws4.resourceIcon;resIcon=mxgraph.aws4.managed_streaming_for_kafka;" vertex="1" parent="1">
          <mxGeometry x="960" y="313.5" width="139" height="139" as="geometry" />
        </mxCell>
        <mxCell id="si4GwPSTlt8YV-L22YSr-27" value="User Service" style="rounded=1;whiteSpace=wrap;html=1;fillColor=#66FFFF;" vertex="1" parent="1">
          <mxGeometry x="365" y="280" width="75" height="60" as="geometry" />
        </mxCell>
        <mxCell id="si4GwPSTlt8YV-L22YSr-29" value="&lt;font style=&quot;font-size: 24px;&quot;&gt;cluster&lt;/font&gt;" style="text;html=1;align=center;verticalAlign=middle;whiteSpace=wrap;rounded=0;" vertex="1" parent="1">
          <mxGeometry x="280" y="30" width="150" height="50" as="geometry" />
        </mxCell>
        <mxCell id="si4GwPSTlt8YV-L22YSr-30" value="&lt;font style=&quot;font-size: 24px;&quot;&gt;Theatre Infrastructure&lt;/font&gt;" style="text;html=1;align=center;verticalAlign=middle;whiteSpace=wrap;rounded=0;" vertex="1" parent="1">
          <mxGeometry x="1240" y="180" width="320" height="40" as="geometry" />
        </mxCell>
        <mxCell id="si4GwPSTlt8YV-L22YSr-31" style="edgeStyle=elbowEdgeStyle;rounded=0;orthogonalLoop=1;jettySize=auto;elbow=vertical;html=1;exitX=0.75;exitY=1;exitDx=0;exitDy=0;" edge="1" parent="1" source="si4GwPSTlt8YV-L22YSr-30" target="si4GwPSTlt8YV-L22YSr-30">
          <mxGeometry relative="1" as="geometry" />
        </mxCell>
        <mxCell id="si4GwPSTlt8YV-L22YSr-32" value="booking Service" style="rounded=1;whiteSpace=wrap;html=1;fillColor=#66FFFF;" vertex="1" parent="1">
          <mxGeometry x="1250" y="450" width="75" height="60" as="geometry" />
        </mxCell>
        <mxCell id="si4GwPSTlt8YV-L22YSr-33" value="XXXX" style="rounded=1;whiteSpace=wrap;html=1;fillColor=#66FFFF;" vertex="1" parent="1">
          <mxGeometry x="1250" y="240" width="75" height="60" as="geometry" />
        </mxCell>
        <mxCell id="si4GwPSTlt8YV-L22YSr-34" value="" style="outlineConnect=0;dashed=0;verticalLabelPosition=bottom;verticalAlign=top;align=center;html=1;shape=mxgraph.aws3.redis;fillColor=#2E73B8;gradientColor=none;" vertex="1" parent="1">
          <mxGeometry x="1430" y="360.5" width="60" height="63" as="geometry" />
        </mxCell>
        <mxCell id="si4GwPSTlt8YV-L22YSr-37" value="" style="outlineConnect=0;dashed=0;verticalLabelPosition=bottom;verticalAlign=top;align=center;html=1;shape=mxgraph.aws3.oracle_db_instance;fillColor=#2E73B8;gradientColor=none;" vertex="1" parent="1">
          <mxGeometry x="377.5" y="345.5" width="50" height="32.5" as="geometry" />
        </mxCell>
        <mxCell id="si4GwPSTlt8YV-L22YSr-38" value="" style="outlineConnect=0;dashed=0;verticalLabelPosition=bottom;verticalAlign=top;align=center;html=1;shape=mxgraph.aws3.oracle_db_instance;fillColor=#2E73B8;gradientColor=none;" vertex="1" parent="1">
          <mxGeometry x="1550" y="360.5" width="70" height="59.5" as="geometry" />
        </mxCell>
        <mxCell id="si4GwPSTlt8YV-L22YSr-39" value="Cache" style="text;html=1;align=center;verticalAlign=middle;whiteSpace=wrap;rounded=0;" vertex="1" parent="1">
          <mxGeometry x="1430" y="424" width="60" height="30" as="geometry" />
        </mxCell>
        <mxCell id="si4GwPSTlt8YV-L22YSr-40" value="Feed/Updates Service" style="rounded=1;whiteSpace=wrap;html=1;fillColor=#66FFFF;" vertex="1" parent="1">
          <mxGeometry x="1238" y="340" width="75" height="60" as="geometry" />
        </mxCell>
        <mxCell id="si4GwPSTlt8YV-L22YSr-41" value="SMS/ Email Integration" style="text;html=1;align=center;verticalAlign=middle;whiteSpace=wrap;rounded=0;" vertex="1" parent="1">
          <mxGeometry x="590" y="810" width="60" height="30" as="geometry" />
        </mxCell>
        <mxCell id="si4GwPSTlt8YV-L22YSr-42" value="Payment Service" style="rounded=1;whiteSpace=wrap;html=1;fillColor=#66FFFF;" vertex="1" parent="1">
          <mxGeometry x="365" y="560" width="75" height="60" as="geometry" />
        </mxCell>
        <mxCell id="si4GwPSTlt8YV-L22YSr-43" value="" style="outlineConnect=0;dashed=0;verticalLabelPosition=bottom;verticalAlign=top;align=center;html=1;shape=mxgraph.aws3.oracle_db_instance;fillColor=#2E73B8;gradientColor=none;" vertex="1" parent="1">
          <mxGeometry x="377.5" y="753.75" width="50" height="32.5" as="geometry" />
        </mxCell>
        <mxCell id="si4GwPSTlt8YV-L22YSr-44" value="" style="outlineConnect=0;dashed=0;verticalLabelPosition=bottom;verticalAlign=top;align=center;html=1;shape=mxgraph.aws3.oracle_db_instance;fillColor=#2E73B8;gradientColor=none;" vertex="1" parent="1">
          <mxGeometry x="470" y="113.75" width="50" height="32.5" as="geometry" />
        </mxCell>
        <mxCell id="si4GwPSTlt8YV-L22YSr-45" value="" style="outlineConnect=0;dashed=0;verticalLabelPosition=bottom;verticalAlign=top;align=center;html=1;shape=mxgraph.aws3.oracle_db_instance;fillColor=#2E73B8;gradientColor=none;" vertex="1" parent="1">
          <mxGeometry x="630" y="280" width="50" height="32.5" as="geometry" />
        </mxCell>
        <mxCell id="si4GwPSTlt8YV-L22YSr-46" value="" style="outlineConnect=0;dashed=0;verticalLabelPosition=bottom;verticalAlign=top;align=center;html=1;shape=mxgraph.aws3.oracle_db_instance;fillColor=#2E73B8;gradientColor=none;" vertex="1" parent="1">
          <mxGeometry x="377.5" y="410" width="50" height="32.5" as="geometry" />
        </mxCell>
        <mxCell id="si4GwPSTlt8YV-L22YSr-47" value="" style="outlineConnect=0;dashed=0;verticalLabelPosition=bottom;verticalAlign=top;align=center;html=1;shape=mxgraph.aws3.oracle_db_instance;fillColor=#2E73B8;gradientColor=none;" vertex="1" parent="1">
          <mxGeometry x="375" y="630" width="50" height="32.5" as="geometry" />
        </mxCell>
        <mxCell id="si4GwPSTlt8YV-L22YSr-48" value="" style="endArrow=classic;startArrow=classic;html=1;rounded=0;elbow=vertical;" edge="1" parent="1">
          <mxGeometry width="50" height="50" relative="1" as="geometry">
            <mxPoint x="310" y="480" as="sourcePoint" />
            <mxPoint x="360" y="480" as="targetPoint" />
          </mxGeometry>
        </mxCell>
        <mxCell id="si4GwPSTlt8YV-L22YSr-49" value="" style="endArrow=classic;startArrow=classic;html=1;rounded=0;elbow=vertical;" edge="1" parent="1">
          <mxGeometry width="50" height="50" relative="1" as="geometry">
            <mxPoint x="310" y="590" as="sourcePoint" />
            <mxPoint x="360" y="590" as="targetPoint" />
          </mxGeometry>
        </mxCell>
        <mxCell id="si4GwPSTlt8YV-L22YSr-50" value="" style="edgeStyle=elbowEdgeStyle;elbow=horizontal;endArrow=classic;html=1;curved=0;rounded=0;endSize=8;startSize=8;exitX=0.04;exitY=0.633;exitDx=0;exitDy=0;exitPerimeter=0;" edge="1" parent="1" source="si4GwPSTlt8YV-L22YSr-40">
          <mxGeometry width="50" height="50" relative="1" as="geometry">
            <mxPoint x="1237.9950000000001" y="325.65999999999997" as="sourcePoint" />
            <mxPoint x="1090.97" y="386.65999999999997" as="targetPoint" />
            <Array as="points">
              <mxPoint x="1120.97" y="386.65999999999997" />
            </Array>
          </mxGeometry>
        </mxCell>
        <mxCell id="si4GwPSTlt8YV-L22YSr-51" value="" style="edgeStyle=elbowEdgeStyle;elbow=horizontal;endArrow=classic;html=1;curved=0;rounded=0;endSize=8;startSize=8;exitX=0;exitY=0.5;exitDx=0;exitDy=0;exitPerimeter=0;" edge="1" parent="1" source="si4GwPSTlt8YV-L22YSr-26">
          <mxGeometry width="50" height="50" relative="1" as="geometry">
            <mxPoint x="540" y="430" as="sourcePoint" />
            <mxPoint x="590" y="383" as="targetPoint" />
          </mxGeometry>
        </mxCell>
        <mxCell id="si4GwPSTlt8YV-L22YSr-52" value="" style="endArrow=none;dashed=1;html=1;dashPattern=1 3;strokeWidth=2;rounded=0;elbow=vertical;" edge="1" parent="1">
          <mxGeometry width="50" height="50" relative="1" as="geometry">
            <mxPoint x="580" y="350" as="sourcePoint" />
            <mxPoint x="630" y="300" as="targetPoint" />
          </mxGeometry>
        </mxCell>
        <mxCell id="si4GwPSTlt8YV-L22YSr-53" value="" style="endArrow=none;dashed=1;html=1;dashPattern=1 3;strokeWidth=2;rounded=0;elbow=vertical;entryX=0.5;entryY=0;entryDx=0;entryDy=0;entryPerimeter=0;" edge="1" parent="1" target="si4GwPSTlt8YV-L22YSr-45">
          <mxGeometry width="50" height="50" relative="1" as="geometry">
            <mxPoint x="580" y="230" as="sourcePoint" />
            <mxPoint x="630" y="180" as="targetPoint" />
          </mxGeometry>
        </mxCell>
        <mxCell id="si4GwPSTlt8YV-L22YSr-54" value="" style="endArrow=classic;startArrow=classic;html=1;rounded=0;elbow=vertical;" edge="1" parent="1">
          <mxGeometry width="50" height="50" relative="1" as="geometry">
            <mxPoint x="310" y="230" as="sourcePoint" />
            <mxPoint x="510" y="230" as="targetPoint" />
          </mxGeometry>
        </mxCell>
        <mxCell id="si4GwPSTlt8YV-L22YSr-56" value="Order Service" style="rounded=1;whiteSpace=wrap;html=1;strokeColor=#66FFFF;fillColor=#66FFFF;" vertex="1" parent="1">
          <mxGeometry x="530" y="510" width="75" height="60" as="geometry" />
        </mxCell>
        <mxCell id="si4GwPSTlt8YV-L22YSr-59" value="" style="endArrow=classic;startArrow=classic;html=1;rounded=0;elbow=vertical;" edge="1" parent="1" target="si4GwPSTlt8YV-L22YSr-56">
          <mxGeometry width="50" height="50" relative="1" as="geometry">
            <mxPoint x="310" y="540" as="sourcePoint" />
            <mxPoint x="360" y="490" as="targetPoint" />
          </mxGeometry>
        </mxCell>
        <mxCell id="si4GwPSTlt8YV-L22YSr-61" value="" style="outlineConnect=0;dashed=0;verticalLabelPosition=bottom;verticalAlign=top;align=center;html=1;shape=mxgraph.aws3.oracle_db_instance;fillColor=#2E73B8;gradientColor=none;" vertex="1" parent="1">
          <mxGeometry x="542.5" y="580" width="50" height="32.5" as="geometry" />
        </mxCell>
        <mxCell id="si4GwPSTlt8YV-L22YSr-66" value="2" style="text;html=1;align=center;verticalAlign=middle;resizable=0;points=[];autosize=1;strokeColor=none;fillColor=none;" vertex="1" parent="1">
          <mxGeometry x="1105" y="348" width="30" height="30" as="geometry" />
        </mxCell>
        <mxCell id="si4GwPSTlt8YV-L22YSr-67" value="3" style="text;html=1;align=center;verticalAlign=middle;whiteSpace=wrap;rounded=0;" vertex="1" parent="1">
          <mxGeometry x="700" y="357" width="60" height="30" as="geometry" />
        </mxCell>
        <mxCell id="si4GwPSTlt8YV-L22YSr-68" value="4" style="text;html=1;align=center;verticalAlign=middle;whiteSpace=wrap;rounded=0;" vertex="1" parent="1">
          <mxGeometry x="430" y="230" width="60" height="30" as="geometry" />
        </mxCell>
        <mxCell id="si4GwPSTlt8YV-L22YSr-70" value="" style="edgeStyle=entityRelationEdgeStyle;fontSize=12;html=1;endArrow=blockThin;endFill=1;startArrow=none;rounded=0;startFill=0;elbow=vertical;" edge="1" parent="1">
          <mxGeometry width="60" height="60" relative="1" as="geometry">
            <mxPoint x="310" y="370" as="sourcePoint" />
            <mxPoint x="370" y="310" as="targetPoint" />
          </mxGeometry>
        </mxCell>
        <mxCell id="si4GwPSTlt8YV-L22YSr-71" value="1" style="text;html=1;align=center;verticalAlign=middle;whiteSpace=wrap;rounded=0;" vertex="1" parent="1">
          <mxGeometry x="318" y="284" width="60" height="30" as="geometry" />
        </mxCell>
        <mxCell id="si4GwPSTlt8YV-L22YSr-72" value="5" style="text;html=1;align=center;verticalAlign=middle;whiteSpace=wrap;rounded=0;" vertex="1" parent="1">
          <mxGeometry x="318" y="120" width="60" height="30" as="geometry" />
        </mxCell>
        <mxCell id="si4GwPSTlt8YV-L22YSr-73" value="6" style="text;html=1;align=center;verticalAlign=middle;whiteSpace=wrap;rounded=0;" vertex="1" parent="1">
          <mxGeometry x="560" y="454" width="60" height="30" as="geometry" />
        </mxCell>
        <mxCell id="si4GwPSTlt8YV-L22YSr-74" value="" style="edgeStyle=elbowEdgeStyle;elbow=horizontal;endArrow=classic;html=1;curved=0;rounded=0;endSize=8;startSize=8;exitX=1.027;exitY=0.4;exitDx=0;exitDy=0;exitPerimeter=0;" edge="1" parent="1" source="si4GwPSTlt8YV-L22YSr-32">
          <mxGeometry width="50" height="50" relative="1" as="geometry">
            <mxPoint x="1380" y="450" as="sourcePoint" />
            <mxPoint x="1430" y="400" as="targetPoint" />
          </mxGeometry>
        </mxCell>
        <mxCell id="si4GwPSTlt8YV-L22YSr-75" value="" style="endArrow=none;html=1;rounded=0;elbow=vertical;" edge="1" parent="1" source="si4GwPSTlt8YV-L22YSr-34">
          <mxGeometry width="50" height="50" relative="1" as="geometry">
            <mxPoint x="1490" y="442" as="sourcePoint" />
            <mxPoint x="1560.7106781186549" y="392" as="targetPoint" />
          </mxGeometry>
        </mxCell>
        <mxCell id="si4GwPSTlt8YV-L22YSr-76" value="" style="edgeStyle=elbowEdgeStyle;elbow=horizontal;endArrow=classic;html=1;curved=0;rounded=0;endSize=8;startSize=8;exitX=1;exitY=0.5;exitDx=0;exitDy=0;" edge="1" parent="1" source="si4GwPSTlt8YV-L22YSr-13">
          <mxGeometry width="50" height="50" relative="1" as="geometry">
            <mxPoint x="910" y="460" as="sourcePoint" />
            <mxPoint x="960" y="410" as="targetPoint" />
          </mxGeometry>
        </mxCell>
        <mxCell id="si4GwPSTlt8YV-L22YSr-77" value="" style="edgeStyle=elbowEdgeStyle;elbow=horizontal;endArrow=classic;html=1;curved=0;rounded=0;endSize=8;startSize=8;entryX=0;entryY=0.25;entryDx=0;entryDy=0;" edge="1" parent="1" target="si4GwPSTlt8YV-L22YSr-32">
          <mxGeometry width="50" height="50" relative="1" as="geometry">
            <mxPoint x="1100" y="420" as="sourcePoint" />
            <mxPoint x="1250" y="500" as="targetPoint" />
            <Array as="points">
              <mxPoint x="1190" y="440" />
            </Array>
          </mxGeometry>
        </mxCell>
        <mxCell id="si4GwPSTlt8YV-L22YSr-79" value="7" style="text;html=1;align=center;verticalAlign=middle;whiteSpace=wrap;rounded=0;" vertex="1" parent="1">
          <mxGeometry x="1120" y="400" width="60" height="30" as="geometry" />
        </mxCell>
        <mxCell id="si4GwPSTlt8YV-L22YSr-80" value="8" style="text;html=1;align=center;verticalAlign=middle;whiteSpace=wrap;rounded=0;" vertex="1" parent="1">
          <mxGeometry x="315" y="590" width="60" height="30" as="geometry" />
        </mxCell>
        <mxCell id="si4GwPSTlt8YV-L22YSr-81" value="9" style="text;html=1;align=center;verticalAlign=middle;whiteSpace=wrap;rounded=0;" vertex="1" parent="1">
          <mxGeometry x="450" y="540" width="60" height="30" as="geometry" />
        </mxCell>
        <mxCell id="si4GwPSTlt8YV-L22YSr-82" value="" style="edgeStyle=elbowEdgeStyle;elbow=horizontal;endArrow=classic;html=1;curved=0;rounded=0;endSize=8;startSize=8;" edge="1" parent="1" source="si4GwPSTlt8YV-L22YSr-56">
          <mxGeometry width="50" height="50" relative="1" as="geometry">
            <mxPoint x="910" y="480" as="sourcePoint" />
            <mxPoint x="960" y="430" as="targetPoint" />
          </mxGeometry>
        </mxCell>
        <mxCell id="si4GwPSTlt8YV-L22YSr-83" value="10 , 12" style="text;html=1;align=center;verticalAlign=middle;whiteSpace=wrap;rounded=0;" vertex="1" parent="1">
          <mxGeometry x="700" y="535" width="60" height="30" as="geometry" />
        </mxCell>
        <mxCell id="si4GwPSTlt8YV-L22YSr-84" value="" style="edgeStyle=elbowEdgeStyle;elbow=horizontal;endArrow=classic;html=1;curved=0;rounded=0;endSize=8;startSize=8;entryX=0.192;entryY=0.696;entryDx=0;entryDy=0;entryPerimeter=0;" edge="1" parent="1" target="si4GwPSTlt8YV-L22YSr-25">
          <mxGeometry width="50" height="50" relative="1" as="geometry">
            <mxPoint x="1089" y="440" as="sourcePoint" />
            <mxPoint x="1240" y="535" as="targetPoint" />
            <Array as="points">
              <mxPoint x="1130" y="440" />
            </Array>
          </mxGeometry>
        </mxCell>
        <mxCell id="si4GwPSTlt8YV-L22YSr-85" value="11" style="text;html=1;align=center;verticalAlign=middle;whiteSpace=wrap;rounded=0;" vertex="1" parent="1">
          <mxGeometry x="1090" y="465" width="60" height="30" as="geometry" />
        </mxCell>
        <mxCell id="si4GwPSTlt8YV-L22YSr-89" value="" style="edgeStyle=segmentEdgeStyle;endArrow=classic;html=1;curved=0;rounded=0;endSize=8;startSize=8;elbow=vertical;" edge="1" parent="1">
          <mxGeometry width="50" height="50" relative="1" as="geometry">
            <mxPoint x="1020" y="650" as="sourcePoint" />
            <mxPoint x="440" y="710" as="targetPoint" />
          </mxGeometry>
        </mxCell>
        <mxCell id="si4GwPSTlt8YV-L22YSr-90" value="" style="endArrow=none;html=1;rounded=0;elbow=vertical;" edge="1" parent="1">
          <mxGeometry width="50" height="50" relative="1" as="geometry">
            <mxPoint x="1020" y="650" as="sourcePoint" />
            <mxPoint x="1020" y="450" as="targetPoint" />
          </mxGeometry>
        </mxCell>
        <mxCell id="si4GwPSTlt8YV-L22YSr-91" value="13" style="text;html=1;align=center;verticalAlign=middle;whiteSpace=wrap;rounded=0;" vertex="1" parent="1">
          <mxGeometry x="680" y="625" width="60" height="30" as="geometry" />
        </mxCell>
        <mxCell id="si4GwPSTlt8YV-L22YSr-93" value="" style="endArrow=classic;html=1;rounded=0;elbow=vertical;" edge="1" parent="1">
          <mxGeometry width="50" height="50" relative="1" as="geometry">
            <mxPoint x="630" y="650" as="sourcePoint" />
            <mxPoint x="630" y="740" as="targetPoint" />
          </mxGeometry>
        </mxCell>
        <mxCell id="si4GwPSTlt8YV-L22YSr-94" value="14" style="text;html=1;align=center;verticalAlign=middle;whiteSpace=wrap;rounded=0;" vertex="1" parent="1">
          <mxGeometry x="610" y="680" width="60" height="30" as="geometry" />
        </mxCell>
        <mxCell id="si4GwPSTlt8YV-L22YSr-95" value="" style="sketch=0;points=[[0,0,0],[0.25,0,0],[0.5,0,0],[0.75,0,0],[1,0,0],[0,1,0],[0.25,1,0],[0.5,1,0],[0.75,1,0],[1,1,0],[0,0.25,0],[0,0.5,0],[0,0.75,0],[1,0.25,0],[1,0.5,0],[1,0.75,0]];outlineConnect=0;fontColor=#232F3E;fillColor=#8C4FFF;strokeColor=#ffffff;dashed=0;verticalLabelPosition=bottom;verticalAlign=top;align=center;html=1;fontSize=12;fontStyle=0;aspect=fixed;shape=mxgraph.aws4.resourceIcon;resIcon=mxgraph.aws4.api_gateway;" vertex="1" parent="1">
          <mxGeometry x="70" y="411.66" width="60" height="60" as="geometry" />
        </mxCell>
        <mxCell id="si4GwPSTlt8YV-L22YSr-96" value="&lt;b&gt;API Gateway&lt;/b&gt;" style="text;html=1;align=center;verticalAlign=middle;whiteSpace=wrap;rounded=0;" vertex="1" parent="1">
          <mxGeometry x="70" y="480" width="60" height="30" as="geometry" />
        </mxCell>
        <mxCell id="si4GwPSTlt8YV-L22YSr-97" value="" style="image;aspect=fixed;html=1;points=[];align=center;fontSize=12;image=img/lib/azure2/networking/DNS_Zones.svg;" vertex="1" parent="1">
          <mxGeometry x="-64" y="420" width="64" height="64" as="geometry" />
        </mxCell>
        <mxCell id="si4GwPSTlt8YV-L22YSr-98" value="" style="endArrow=none;html=1;rounded=0;elbow=vertical;entryX=0.1;entryY=0.639;entryDx=0;entryDy=0;entryPerimeter=0;" edge="1" parent="1" target="si4GwPSTlt8YV-L22YSr-95">
          <mxGeometry width="50" height="50" relative="1" as="geometry">
            <mxPoint y="450" as="sourcePoint" />
            <mxPoint x="50" y="400" as="targetPoint" />
          </mxGeometry>
        </mxCell>
        <mxCell id="si4GwPSTlt8YV-L22YSr-100" value="" style="endArrow=none;html=1;rounded=0;elbow=vertical;entryX=0;entryY=0.679;entryDx=0;entryDy=0;entryPerimeter=0;" edge="1" parent="1" target="si4GwPSTlt8YV-L22YSr-19">
          <mxGeometry width="50" height="50" relative="1" as="geometry">
            <mxPoint x="130" y="450" as="sourcePoint" />
            <mxPoint x="180" y="400" as="targetPoint" />
          </mxGeometry>
        </mxCell>
        <mxCell id="si4GwPSTlt8YV-L22YSr-102" value="" style="endArrow=classic;html=1;rounded=0;elbow=vertical;" edge="1" parent="1">
          <mxGeometry width="50" height="50" relative="1" as="geometry">
            <mxPoint x="40" y="450" as="sourcePoint" />
            <mxPoint x="40" y="360" as="targetPoint" />
          </mxGeometry>
        </mxCell>
        <mxCell id="si4GwPSTlt8YV-L22YSr-103" value="Cloud&#xa;CDN" style="sketch=0;html=1;verticalAlign=top;labelPosition=center;verticalLabelPosition=bottom;align=center;spacingTop=-6;fontSize=11;fontStyle=1;fontColor=#999999;shape=image;aspect=fixed;imageAspect=0;image=data:image/svg+xml,PHN2ZyB4bWxucz0iaHR0cDovL3d3dy53My5vcmcvMjAwMC9zdmciIHhtbG5zOnY9Imh0dHBzOi8vdmVjdGEuaW8vbmFubyIgd2lkdGg9IjIwIiBoZWlnaHQ9IjIwIiB2aWV3Qm94PSIwIDAgMjAgMjAiPiYjeGE7CTxzdHlsZSB0eXBlPSJ0ZXh0L2NzcyI+JiN4YTsJLnN0MHtmaWxsOiM0Mjg1ZjQ7fSYjeGE7CS5zdDF7ZmlsbDojNjY5ZGY2O30mI3hhOwkuc3Qye2ZpbGw6I2FlY2JmYTt9JiN4YTsJPC9zdHlsZT4mI3hhOwk8cGF0aCBjbGFzcz0ic3QxIiBkPSJNMTMuMTMgNS42M1YzLjIxTDEwIDB2Mi40MXptMy43NSA3LjVMMjAgMTBoLTIuNWwtMy4xMiAzLjEzem0tMTMuNzUgMEwwIDEwaDIuNWwzLjEzIDMuMTN6bTEwIDEuMjV2Mi40MUwxMCAyMHYtMi40MXoiIGZpbGwtcnVsZT0iZXZlbm9kZCIvPiYjeGE7CTxwYXRoIGNsYXNzPSJzdDIiIGQ9Ik02Ljg4IDUuNjNMMTAgMi40MVYwTDYuODggMy4yMXpNMTcuNSAxMEgyMGwtMy4xMi0zLjEyaC0yLjV6bS0xNSAwSDBsMy4xMy0zLjEyaDIuNXptNC4zOCA0LjM4TDEwIDE3LjU5VjIwbC0zLjEyLTMuMjF6bTAtNy41aDYuMjV2Ni4yNUg2Ljg4eiIgZmlsbC1ydWxlPSJldmVub2RkIi8+JiN4YTsJPHBhdGggY2xhc3M9InN0MSIgZD0iTTYuODggMTMuMTNsNi4yNS02LjI1djYuMjV6IiBmaWxsLXJ1bGU9ImV2ZW5vZGQiLz4mI3hhOwk8cGF0aCBjbGFzcz0ic3QwIiBkPSJNMTAgMTBsMy4xMy0zLjEydjYuMjV6IiBmaWxsLXJ1bGU9ImV2ZW5vZGQiLz4mI3hhOzwvc3ZnPg==;" vertex="1" parent="1">
          <mxGeometry x="20" y="289" width="42" height="42" as="geometry" />
        </mxCell>
        <mxCell id="si4GwPSTlt8YV-L22YSr-104" value="" style="shape=actor;whiteSpace=wrap;html=1;" vertex="1" parent="1">
          <mxGeometry x="-200" y="420" width="40" height="60" as="geometry" />
        </mxCell>
        <mxCell id="si4GwPSTlt8YV-L22YSr-105" value="" style="endArrow=classic;startArrow=classic;html=1;rounded=0;elbow=vertical;exitX=0.9;exitY=0.5;exitDx=0;exitDy=0;exitPerimeter=0;entryX=0.063;entryY=0.469;entryDx=0;entryDy=0;entryPerimeter=0;" edge="1" parent="1" source="si4GwPSTlt8YV-L22YSr-104" target="si4GwPSTlt8YV-L22YSr-97">
          <mxGeometry width="50" height="50" relative="1" as="geometry">
            <mxPoint x="-150" y="460" as="sourcePoint" />
            <mxPoint x="-100" y="410" as="targetPoint" />
          </mxGeometry>
        </mxCell>
        <mxCell id="si4GwPSTlt8YV-L22YSr-106" value="" style="outlineConnect=0;dashed=0;verticalLabelPosition=bottom;verticalAlign=top;align=center;html=1;shape=mxgraph.aws3.redis;fillColor=#2E73B8;gradientColor=none;" vertex="1" parent="1">
          <mxGeometry x="635" y="208.5" width="40" height="43" as="geometry" />
        </mxCell>
        <mxCell id="si4GwPSTlt8YV-L22YSr-107" value="" style="outlineConnect=0;dashed=0;verticalLabelPosition=bottom;verticalAlign=top;align=center;html=1;shape=mxgraph.aws3.elasticsearch_service;fillColor=#F58534;gradientColor=none;" vertex="1" parent="1">
          <mxGeometry x="730" y="201.5" width="40" height="50" as="geometry" />
        </mxCell>
        <mxCell id="si4GwPSTlt8YV-L22YSr-108" value="And/Or" style="text;html=1;align=center;verticalAlign=middle;whiteSpace=wrap;rounded=0;" vertex="1" parent="1">
          <mxGeometry x="670" y="215" width="60" height="30" as="geometry" />
        </mxCell>
        <mxCell id="si4GwPSTlt8YV-L22YSr-109" value="" style="endArrow=classic;startArrow=classic;html=1;rounded=0;elbow=vertical;exitX=0.25;exitY=0;exitDx=0;exitDy=0;" edge="1" parent="1" source="si4GwPSTlt8YV-L22YSr-56">
          <mxGeometry width="50" height="50" relative="1" as="geometry">
            <mxPoint x="500" y="460" as="sourcePoint" />
            <mxPoint x="550" y="410" as="targetPoint" />
          </mxGeometry>
        </mxCell>
        <mxCell id="si4GwPSTlt8YV-L22YSr-110" value="9" style="text;html=1;align=center;verticalAlign=middle;whiteSpace=wrap;rounded=0;" vertex="1" parent="1">
          <mxGeometry x="530" y="426.66" width="60" height="30" as="geometry" />
        </mxCell>
      </root>
    </mxGraphModel>
  </diagram>
</mxfile>
